<svg id="Livello_1" data-name="Livello 1" xmlns="http://www.w3.org/2000/svg" viewBox="0 0 142.3 168.34"><defs><style>.cls-1{fill:#3a1b67;}.cls-2{fill:none;}</style></defs><path class="cls-1" d="M381,330.71h43.11c3.79,0,3.84.05,3.84,3.87q0,31.19,0,62.37c0,8.3-4.61,13-12.94,13.22-6,.18-6,.18-6,6.32,0,5.17,0,10.35,0,15.52-.05,6.38-4.39,11-10.38,11.06a10.67,10.67,0,0,1-11-10.82c-.15-6.13-.18-12.27,0-18.4.09-3-1-4-3.83-3.7a37.94,37.94,0,0,1-6,0c-2.47-.18-3.41.73-3.36,3.28.15,6,.08,12.07,0,18.11,0,6.89-4.47,11.56-10.85,11.52-6.17,0-10.55-4.77-10.59-11.51,0-6.13-.08-12.27,0-18.39,0-2.27-.8-3.14-3-3-11.94.8-16.26-5.52-16-16.31.39-19.53.11-39.08.11-58.63,0-4.52,0-4.53,4.66-4.53Z" transform="translate(-309.9 -274.73)"/><path class="cls-1" d="M404.67,289.27c3.93,3.2,7.76,5.92,11.11,9.14,7.2,6.89,11,15.54,12.09,25.39.38,3.4,0,3.82-3.47,3.82H337.66c-3.44,0-3.77-.44-3.39-3.86,1.55-14.12,8.67-24.74,20.6-32.13,2.58-1.6,2.69-2.76,1.18-5.08a74.48,74.48,0,0,1-4.78-8.83c-.37-.79.14-2,.25-3,.92.48,2.23.71,2.7,1.46,2,3.17,3.74,6.46,5.45,9.78.84,1.63,1.61,2.13,3.55,1.4a49.64,49.64,0,0,1,35.38-.11c2.08.75,3.11.42,4.06-1.51a99.3,99.3,0,0,1,5-9.06c.57-.91,2-1.3,3-1.92,0,1.17.51,2.56.06,3.49C408.82,282,406.68,285.65,404.67,289.27Zm-41.32,17.66A3.77,3.77,0,0,0,360,303a3.57,3.57,0,0,0-3.69,3.53,3.46,3.46,0,0,0,3.52,3.43A3.24,3.24,0,0,0,363.35,306.93Zm42.48-.48c-.31-1.9-1.34-3.35-3.45-3.4a3.45,3.45,0,0,0-.16,6.89C404.32,310,405.43,308.59,405.83,306.45Z" transform="translate(-309.9 -274.73)"/><path class="cls-1" d="M331.26,361.4c0,7.17.11,14.35,0,21.52a10.9,10.9,0,0,1-9.16,10.62,10.56,10.56,0,0,1-11.42-6.77,13.28,13.28,0,0,1-.71-4.49q-.07-21.09,0-42.19c0-6.64,4.26-11.29,10.34-11.44s10.85,4.63,11,11.22C331.37,347,331.26,354.22,331.26,361.4Z" transform="translate(-309.9 -274.73)"/><path class="cls-1" d="M452.19,361.16c0,7.09,0,14.17,0,21.25,0,6.34-4.35,11-10.25,11.22a11,11,0,0,1-11.11-10.85c-.16-5.93-.05-11.86-.06-17.8,0-8.23-.08-16.46,0-24.69.11-8,6.52-13.15,13.72-11.17a10.21,10.21,0,0,1,7.64,9.94C452.23,346.42,452.19,353.79,452.19,361.16Z" transform="translate(-309.9 -274.73)"/><path class="cls-2" d="M363.35,306.93a3.24,3.24,0,0,1-3.51,3.05,3.46,3.46,0,0,1-3.52-3.43A3.57,3.57,0,0,1,360,303,3.77,3.77,0,0,1,363.35,306.93Z" transform="translate(-309.9 -274.73)"/><path class="cls-2" d="M405.83,306.45c-.4,2.14-1.51,3.57-3.61,3.49a3.45,3.45,0,0,1,.16-6.89C404.49,303.1,405.52,304.55,405.83,306.45Z" transform="translate(-309.9 -274.73)"/></svg>