<svg id="Livello_1" data-name="Livello 1" xmlns="http://www.w3.org/2000/svg" viewBox="0 0 137.68 169.68"><defs><style>.cls-1{fill:#3a1b67;}</style></defs><path class="cls-1" d="M207.83,443.81c-4.37-1.29-8.91-2.18-13.07-3.95a35.33,35.33,0,0,0-29.25,0c-2.18,1-4.49,1.63-6.74,2.46-7.88,2.9-14.55.43-20.26-5-12.8-12.16-21.16-27.06-26.29-43.85-4.19-13.76-5.83-27.78-2.87-42,3.29-15.76,11.76-27.71,27.15-33.91,9.36-3.77,18.61-3,28,.46,15.92,5.8,11.11,5.66,26.52.08,12.88-4.67,25.22-4.83,37.5,1.49a36.32,36.32,0,0,1,11.56,9.72c1.45,1.78,1.25,2.79-.65,4.07-6.7,4.51-11.7,10.37-14.21,18.2-5.67,17.67,1.6,36.09,18,44.85,2.37,1.27,2.86,2.46,1.89,4.88-5.55,13.95-12.77,26.79-24.16,36.87A18.17,18.17,0,0,1,208,443.11Z" transform="translate(-107.85 -274.13)"/><path class="cls-1" d="M211.14,279.69c-1.29,12.94-7.73,24.41-21.06,31.25-3,1.53-6.55,2.06-9.92,2.58s-4.1-.41-4-3.84a34.94,34.94,0,0,1,6-18.61A37.74,37.74,0,0,1,207,274.39C210.72,273.65,211.19,274.2,211.14,279.69Z" transform="translate(-107.85 -274.13)"/></svg>