<?xml version="1.0" encoding="utf-8"?>
<!-- Generator: Adobe Illustrator 24.1.2, SVG Export Plug-In . SVG Version: 6.00 Build 0)  -->
<svg version="1.1" id="Livello_1" xmlns="http://www.w3.org/2000/svg" xmlns:xlink="http://www.w3.org/1999/xlink" x="0px" y="0px"
	 viewBox="0 0 2234.7 1013.5" style="enable-background:new 0 0 2234.7 1013.5;" xml:space="preserve">
<style type="text/css">
	.st0{fill:#EBE8F0;}
	.st1{clip-path:url(#SVGID_2_);}
	.st2{fill:#CBC4D9;}
</style>
<circle class="st0" cx="1144.5" cy="505.5" r="495.1"/>
<g>
	<defs>
		<circle id="SVGID_1_" cx="1144.5" cy="505.5" r="495.1"/>
	</defs>
	<clipPath id="SVGID_2_">
		<use xlink:href="#SVGID_1_"  style="overflow:visible;"/>
	</clipPath>
	<g class="st1">
		<path class="st2" d="M1634.9,1013.5c-1.4-1.1-2.9-2.1-4.4-3c-25.1-13.1-48.5-29.3-69.7-48.3c-24.5-21.9-44.9-47.1-59.8-76.3
			c-11.8-23-20.7-47.3-22.9-73.4c-1.3-15.6,0-30.9,7-45.2c5.4-11.2,13.5-20.8,23.5-28.1c15.1-11.2,32.5-16.7,50.8-19.9
			c17.5-3.1,35.2-2.9,52.7-1.9c26.9,1.5,53.3,6.4,79.5,12.5c32.6,7.6,64.8,16.5,96.6,26.8c9,2.9,17.8,6.2,26.8,9.3
			c2,0.8,4.1,1.3,6.2,1.4c-0.9-1.2-1.7-2.4-2.7-3.5c-27.6-32.6-49.4-68.6-62.8-109.3c-5-15.2-8.3-30.9-9.8-46.8
			c-1.4-14-1.4-28,2.7-41.5c5-16.2,14.6-29,29.8-37.3c14-7.7,29.1-10.7,45-11.3c41.6-1.4,78.5,12.3,113,34
			c20.9,13.1,39.3,29.2,56.8,46.4c6.3,6.2,12.5,12.5,18.8,18.8l1.1-0.5c-0.4-1.8-0.8-3.6-1.3-5.4c-5-17.8-8.3-36.1-9.7-54.6
			c-1.2-14.8-1-29.7,0.5-44.5c0.8-7.5,3.2-14.9,4.5-22.4c1.9-10,6.4-19.4,13-27.2c10.8-13.2,25.1-18.2,41.7-16.1
			c14.6,1.8,26.6,9.3,37.2,19.1c10.4,9.9,19.4,21.2,26.6,33.6c0.6,1.1,1.4,2,2.7,3.9c0.5-3.8,1.1-6.8,1.3-9.7
			c0.9-11.6,1.3-23.2,2.4-34.7c1.2-12.2,3.6-24.1,9.7-34.9c5.3-9.3,12.8-16.3,23.7-18.6c8.2-1.7,16.8-0.8,24.5,2.7
			c8.4,3.8,16.1,8.6,22.3,15.3c7.7,8.2,14.9,16.8,22.4,25.3v216.8c-6.3,6.8-13.1,13.1-18.8,20.4c-18.6,23.9-31.8,50.7-40.9,79.5
			c-0.6,1.6-1.3,3.2-2.1,4.7c-0.7-0.4-1.4-0.8-2-1.3c-0.9-0.9-1.6-1.9-2.4-3c-8.7-11.7-18.2-22.6-29.6-31.8
			c-20.4-16.6-43.2-23.5-69.2-17.1c-25.7,6.1-48.7,20.1-66,40c-13.3,15.2-19.6,33.3-19.4,53.6c0.3,10.9,2.2,21.7,5.6,32
			c5,15.7,12.4,30.2,21.3,44c1,1.5,2.7,2.9,1.9,5.7c-3.8-1.7-7.2-3.3-10.7-4.8c-11-4.7-22-9.7-33.2-13.8
			c-23.7-8.7-48.6-14-73.8-15.7c-15.2-1.2-30.5-1.1-45.7,0.6c-10.3,1.2-20.5,2.8-30.3,6.5c-27.2,10-42.8,30.6-41.6,60.8
			c0.6,12.7,3.9,25.2,9.6,36.6c9.4,19.7,24.5,34.5,41.8,47.2c1.8,1.5,3.5,3,5.2,4.7C1768,1013.4,1701.4,1013.5,1634.9,1013.5z"/>
		<path class="st2" d="M352.3,1013.5c-1.9-14.6-3.6-29.2-5.6-43.7c-1.4-10.2-3.3-20.4-4.8-30.7c-3-20.5-3.4-41.1,4.9-60.6
			c4.6-10.8,10.5-21.2,16.5-31.2c4.8-8.1,10.4-15.8,16.5-22.9c10.4-12.1,24.2-18.7,39.7-22.2c14.4-3.1,29.2-4.2,43.9-3.2
			c14.6,0.8,28.7,5.9,40.5,14.6c8.3,5.9,15.7,12.9,22.1,20.8c1.5,1.6,3.1,3.1,4.8,4.5c0.5-2.2,1-4,1.3-5.9
			c1.7-14.9,7-28.5,14.4-41.4c6.2-10.9,12.6-21.7,19.3-32.2c10-15.8,21.2-30.8,33.5-44.9c11.1-12.7,24.1-23.7,38.5-32.5
			c15.6-9.8,32.9-16.5,51-19.8c13.9-2.4,27.8-3.2,41.7,0.4c21.5,5.4,37.9,18,49.5,36.6c9.8,15.7,14.2,33.3,17.2,51.3
			c0.3,2.1,0.8,4.1,1.5,7.4c2.8-4.8,5-8.5,7-12.3c13.8-25.7,29.5-50.5,46.9-74c14.7-19.7,31.5-37.6,49.4-54.3
			c14.5-13.5,29.3-26.5,44.5-39.2c14.2-11.9,28.7-23.5,43.5-34.5c27-20.1,55.1-38.5,85.7-52.8c18.3-8.6,37.2-15.7,57.2-19.4
			c13.8-2.5,27.4-2.9,41,1.5c17.3,5.6,29.7,17,38.7,32.5c8.3,14.2,11.9,29.9,14.3,46c2.1,14.7,2.8,29.6,2.1,44.5
			c-0.6,13.1-3,25.9-6,38.7c-5,21.9-12.8,42.8-21.8,63.2c-10.6,23.8-23.5,46.3-36.2,68.9c-7.8,13.9-16.3,27.5-24.5,41.2
			c-0.4,0.8-0.8,1.6-1.2,2.4c1.5,2.1,3.3,1.2,5,0.9c10-1.8,20-3.8,30.1-5.2c11.3-1.7,22.7-2.9,34.2-0.9c18.4,3.2,30,14.6,36.8,31.3
			c3.7,9,4.9,18.6,5.4,28.2c0.7,14.5-0.8,29.1-4.5,43.2c-3.2,12.4-8.7,23.8-15.2,34.8c-4.9,8.3-9.6,16.7-15.3,24.5
			c-7,9.7-14.7,18.9-22.5,27.9c-3.9,4.5-8.9,8-13.4,12c-2.3,2.1-4.4,4.3-6.6,6.5h-101.4c2.2-2.2,4.2-4.5,6.5-6.5
			c10.4-9.2,19.6-19.3,26.3-31.7c5.9-10.9,1.6-21.5-4.6-28c-7.7-8.1-17.1-13.3-27.4-17.3c-11.2-4.3-22.9-5.3-34.8-4.8
			c-12.2,0.4-24.2,3.1-35.4,8c-20.3,9.1-39,21-56.6,34.6c-1,0.8-2.2,1.6-3.2,2.3c-0.1-0.6,0-1.3,0.4-1.8c12.2-12.6,22-27,31.3-41.8
			c19.5-31,38.8-62.2,55.9-94.7c14.5-27.5,28.8-55,39.6-84.2c3.9-10.7,7.2-21.7,9.9-32.8c2.1-8.6,2.9-17.6,0.5-26.4
			c-1.6-6-4.4-11.4-10.6-13.6c-3.5-1.4-7.3-2.2-11.1-2.4c-9.1-0.1-18.1,0.3-27.2,1.4c-39.3,5.1-73.5,22.1-104.6,45.9
			c-14,10.7-27.3,22.2-39,35.5c-8.4,9.5-17,18.9-24.8,28.9c-20.3,26-36.7,54.5-52.1,83.5c-5.3,10.1-10.2,20.4-15.4,30.6
			c-0.7,1.1-1.4,2.2-2.2,3.3c-0.7-3.1-1-6.3-0.9-9.5c0-19.3-3-38-11.3-55.6s-21.4-29.2-41.9-30.1c-17.7-0.9-35.3,2.1-51.7,8.8
			c-31.1,12.7-56.4,32.8-74,61.7c-11.5,18.8-20.8,38.4-19.6,61.3c0,1-0.6,2.1-1.1,4c-1.5-2-2.5-3.2-3.5-4.5
			c-2.5-3.5-4.9-7.2-7.5-10.7c-5.4-7.4-11.7-13.9-19.5-18.8c-10.7-6.7-22.5-7.1-34.3-5.5c-19.8,2.8-39,9.1-56.7,18.6
			c-12.9,6.6-23.3,17.2-29.6,30.2c-5.8,11.7-7.5,24.2-7.8,37c-0.2,8.3,0.6,16.7,0.9,25L352.3,1013.5z"/>
		<path class="st2" d="M2234.7,195.1c-9.7,13-20,25.4-31.7,36.6c-22.6,21.4-48.1,38-78.5,46.3c-12.4,3.4-24.9,4.5-37.7,2.3
			c-20.4-3.5-33.9-15.1-40.6-34.4c-2.3-7.1-3.8-14.4-4.3-21.8c-1-11.7-1.2-23.5-1.3-35.3c0-5.4,0.9-10.8,1.5-16.8
			c-1,0.4-2,0.9-3,1.4c-23.1,17.3-46.2,34.7-70.4,50.4c-28.6,18.4-58.3,34.8-90.1,47.3c-26.8,10.6-54.4,18.2-83.2,21
			c-10.1,1-20.3,2.1-30.4,1.9c-20.5-0.5-40.6-3.5-58.8-13.8c-18.7-10.6-29.1-26.8-31-48.3c-1.9-21.2,3.2-41.1,11.7-60.2
			c4.1-9.2,8.8-18.3,13.4-27.8c-1.1,0.2-2.2,0.5-3.2,0.9c-22.7,11.5-46.4,20.8-70.3,29.4c-3.9,1.4-7.7,3.4-11.5,4.9
			c-10,3.9-20.3,6.8-30.9,8.4c-8.8,1.5-17.4,3.8-26.1,5.8c-25.9,6-52,10.3-78.3,13.8c-17.1,2.2-34.2,4-51.5,4.2
			c-7.2,0.1-14.5,1.1-21.7,0.9c-28.4-1-56.6-3.8-83.5-13.5c-16.7-6-32.5-13.9-44.8-27.1c-10.5-11.3-16.3-24.6-16.7-40.3
			c-0.4-16.2,4.6-30.7,12.6-44.5c1.1-1.9,2.1-3.7,3.5-6.2c-7.9,0-15.3,0.1-22.6,0c-11.4-0.2-22.9-0.1-34.2-1.1
			c-13.2-1.2-26.3-3.3-39.4-5.4c-18.8-3-36.7-8.8-54.5-15.2c-13.7-4.8-26.9-11.1-39.3-18.6c-12.6-7.9-23.9-17.2-31.4-30.3
			c-1.3-2.3-2.3-4.9-3.6-7.8c1.3-0.5,2.6-0.9,4-1.1c1.6-0.1,3.3-0.1,4.9-0.1h399.1c6.3,0,8.3-1.1,8.7,7.9
			c0.6,12.4,6.2,22.9,14.2,32.3c15.9,18.6,36,30.8,58.7,39.2c11,4,22.4,6.2,34,7.6c13.3,1.8,26.8,2.6,40.2,2.4
			c21.6-0.5,43.1-2.5,64.4-6c28.1-4.7,55.8-11.9,82.7-21.4c21.7-7.7,42-18.1,61.5-30.2c3.2-2,6.6-3.5,9.9-5.2l1.1,1
			c-0.8,1.5-1.6,2.9-2.5,4.3c-4.1,6.5-7.5,13.2-9.1,20.8c-1.8,8.6-0.1,16.6,2.9,24.5c3.6,9.4,10.1,16.8,17.8,23
			c18.4,15,39.6,21.9,63.3,20.6c12-0.8,23.8-2.8,35.4-5.9c21.3-5.6,42.3-12.4,61.7-22.9c23-12.4,45.5-25.9,65.6-42.9
			c5.1-4.3,9.2-9.7,13.8-14.7c1.1-1.5,2.5-2.7,4.2-3.5c-0.1,0.6-0.2,1.3-0.4,1.9c-8.6,21.6-3.8,41.4,8.8,59.7
			c5.8,8.3,14.7,13.1,24.3,15.7c19.9,5.3,39.5,4.3,57.5-6.2c8.4-4.9,15.9-11.4,23.6-17.5c11.9-9.4,21.1-21.5,30.2-33.5
			c0.5-0.7,1.2-1.4,1.8-2C2234.7,98.4,2234.7,146.8,2234.7,195.1z"/>
		<path class="st2" d="M0,318.2c12-4.6,24-9.5,36.1-13.7c20.1-7.1,40.8-12,61.9-14.6c19.3-2.3,38.8-2.1,58.2-0.6
			c15.4,1.1,30.6,4.7,44.9,10.6c15.9,6.7,29.6,16.2,39.3,30.8c17.4,26.2,12.4,56.6-7.4,78.1c-1.6,1.7-3.2,3.3-5.2,5.4
			c7.7,1.1,14.6,2.1,21.6,3.1c24.7,3.2,48.3,10.3,71.1,20.1c28.3,12.1,54.5,28.5,77.8,48.6c22.8,19.6,41.7,42.6,52.9,71
			c7.1,17.6,9,36.9,5.7,55.6c-2,11.4-6.9,21.8-12.8,31.7c-6.3,10.9-14.3,20.7-23.5,29.1c-11.6,10.4-24.9,17.6-40.3,20.5
			c-12.7,2.4-25.3,1.7-37.9-1.2c-14.9-3.5-29.3-8.5-43.3-14.8c-31-13.7-59.9-31.2-88.7-48.8c-1.2-0.8-2.5-1.5-3.8-2.2
			c-0.7-0.2-1.4-0.3-2.1-0.3c0.4,1.4,1,2.8,1.6,4.1c11.1,19.2,20.4,39.3,26.9,60.6c3.9,12.3,6.3,25,7.1,37.9
			c0.2,5.1,1,10.1,0.9,15.2c-0.3,15.2-1.9,30.2-8.8,44c-10.7,21.6-26.5,37.8-51.3,42.4c-10.6,2.1-21.6,1.2-31.7-2.7
			c-1.5-0.6-3.1-1-5.2-1.8c0.2,1.3,0.5,2.7,0.9,4c5.6,15.4,10,31.1,11.8,47.5c1.8,15,2,30,0.7,45c-1.4,14.6-4.7,28.7-11.1,41.8
			c-6.4,13-14.3,24.9-25.8,33.9c-5.7,4.5-11.8,8.4-17.7,12.7c-0.8,0.7-1.6,1.4-2.4,2.2H26.2c-1.4-1.1-2.8-2.2-4.3-3.3
			c-5.2-3.6-10.5-7.2-15.7-10.9C3,997,1,994.1,1.1,989.8c0.1-21.2,0.1-42.5,0-63.7c-0.1-2.9,1-5.8,3.1-7.8c2.8-2.9,5.4-5.9,7.9-9
			c10.3-12.6,19.1-26.5,25.9-41.4c10.3-22.5,10.6-45.4,1.6-68.2c-5.3-13.5-11.2-26.8-17.4-39.9c-5.8-12.3-12.4-24.2-18.6-36.4
			c-1.3-2.2-2.1-4.6-2.4-7.1C1,710,1,703.8,1.2,697.7c0.1-3.8,1.2-4.7,5.1-4.5c1.3,0,2.5,0.4,3.8,0.5c6.3,0.9,12.6,2.1,18.9,2.5
			c19.7,1.1,39.4-2.8,57.1-11.3c25.2-11.9,46.2-29.3,64.9-49.7c5.8-6.3,8.9-14,8.2-22.9c-0.7-9.1-3.9-17.3-8.6-25
			c-11.1-18.6-25.8-34.1-42.5-47.8c-7.5-6.1-16.2-10.6-25.6-13c-10.2-2.7-20.7-4.1-31.2-4.2c-0.9,0-1.7-0.5-3.6-1
			c2.4-0.9,3.8-1.4,5.1-1.9c20.8-8.3,40.1-18.9,55.5-35.5c5-5.3,9.5-11,13.6-17c7.7-11.7,11.4-24.3,7.8-38.7
			c-2.2-8.8-6.5-15.9-12-22.8c-11-13.7-24.8-22.7-41.9-26.7c-7.3-1.7-14.8-2-22.2-0.8c-15.8,2.5-31.2,7-45.9,13.4
			c-2.5,0.9-5.1,1.6-7.8,2.2C0,368.3,0,343.3,0,318.2z"/>
		<path class="st2" d="M442.8,0c-1.5,1.5-3.1,2.9-4.8,4.2c-11.9,8.3-24.3,16-35.7,24.9c-10.9,8.6-20.1,19.1-27.3,30.9
			c-8,13.3-11,27.6-5.9,42.8c3.9,11.8,12.1,19.7,23.3,24.5c9.8,4.3,20.3,4.6,30.5,2.3c16.1-3.7,31.6-10,45.8-18.4
			c13.3-7.8,27-14.9,40.2-22.9c18.5-11.2,37.4-21.8,54.6-35c1.3-0.8,2.7-1.4,4.2-2c0.1,2.7,0.3,4.8,0.2,6.8
			c-0.8,13.6-1.8,27.2,0.7,40.7c2.4,13,8.5,23.9,19.5,31.6c6.5,4.6,14,6.4,22,7c16.1,1.2,29.8-5.2,42.9-13.4
			c8-5.1,15.4-11,22.1-17.6c17.3-16.6,32.1-35.7,44-56.5c6.4-11.2,11.8-23,15.9-35.2c0.7-2,1.5-3.9,2.3-5.9l1.3-0.1
			c0.7,1.7,1.5,3.4,2.1,5.2c3.5,11.3,6.9,22.6,12.9,32.9s13.8,18.7,25.2,23.1c15.5,6,29.7,1.9,42.8-7c9.8-6.7,18.1-15,25.6-24.3
			c8.2-10.2,15.3-21.3,21.3-32.9c1.7-3.3,3.9-4.7,7.7-4.7c30.3,0.1,60.7,0.1,91,0.1c1.6,0.1,3.2,0.3,4.8,0.6
			c-0.1,1.9-0.3,3.7-0.6,5.5c-6.6,31.3-16.6,61.7-29.9,90.8c-10,22-21.3,43.4-35.2,63.2c-8.2,11.7-17.4,22.8-26.5,33.8
			c-11.7,14.1-25.2,26.7-39.9,37.6c-10.9,8.2-22.5,15.4-35.5,19.9c-9.5,3.3-19.1,5.6-29.4,4c-17.4-2.7-28.2-13.2-35-28.5
			c-4-9.2-6-19.1-5.9-29.1c0-2.7,0-5.4,0-9.2c-3.9,2.9-7.3,5.3-10.5,7.8c-33.8,26.6-70.5,47.9-110.9,62.9
			c-16.8,6.3-34.3,10.9-52.1,13.6c-21.2,3.2-42.2,1.7-62.1-6.4c-19.4-7.8-31.2-22.7-35.5-43.1c-1.2-5.6-0.4-11.6-0.5-17.4
			c0-1.6,0-3.2,0-5.6c-5,2.1-9.3,3.8-13.5,5.8c-30.5,13.8-62.4,22.8-95.4,28c-13.8,2.2-27.7,3-41.7,4c-12,0.8-24,0-35.9-0.7
			c-20.1-1.3-40.1-4.8-59.4-10.6c-15.9-4.5-31.4-10.6-46-18.3c-11.8-6.4-22.4-14.1-30.9-24.6c-16.5-20.5-16.5-46.7-0.1-67.2
			c10.2-12.8,23.5-21.5,37.7-29.1c30.3-16.2,62.6-27.3,95.4-36.7c22-6.3,44.2-11.7,66.4-17.5c1.6-0.4,3.1-1,4.5-2
			c-2.5-0.5-4.9-0.9-7.4-1.4c-24.1-4.9-47.3-12.8-70.3-21.4c-5.5-2-10.9-4.1-16.2-6.4c-1.9-0.8-3.6-2.3-5.4-3.5L442.8,0z"/>
		<path class="st2" d="M503.9,1013.5c5-17.8,15.6-31.4,31.2-41c8.8-5.4,18.6-7.8,29-8.2c17.3-0.7,33,3.9,47.5,13.2
			c7.7,4.9,14.5,10.8,19.4,18.7c0.5,0.7,1.1,1.4,2.1,2.6c1.1-1.7,2.1-2.9,2.8-4.2c7.3-13,15.3-25.5,26-36.1
			c13.2-13.2,30.5-21.6,49.1-23.6c11-1.5,22.1-1.4,33.1,0.1c7.9,1.2,15.3,3.9,21.4,8.9c4.3,3.5,7.6,8.1,11.6,12.5
			c1.8-0.9,2.6-3.3,3.7-5.2c8.7-15.6,18.2-30.6,30-44c11.4-13,23.3-25.7,39.7-32.5c6.5-2.7,13.4-5,20.3-5.9
			c14.3-1.8,25.9,4.3,34.9,15.2c11.2,13.6,16.1,29.7,18.2,47c3.5,28.4-5.7,53.6-18.7,78c-0.8,1.4-1.4,2.9-2.2,4.4
			C770,1013.4,636.9,1013.5,503.9,1013.5z"/>
		<path d="M2023.1,1013.5c-1.2-4.6-2.7-9.1-3.5-13.7c-3.2-18.1,2.4-34.1,12.8-48.6c8.2-11.2,20-16.5,33.3-18.6
			c14.6-2.3,29.3-1.6,43.9,0.4c0.7,0.1,1.4,0.2,2.7,0.3c-0.2-1.4-0.6-2.8-1-4.2c-2.8-6.9-4.5-14.2-5.2-21.6
			c-0.7-9.2,1.8-17.9,5.3-26.4c14.3-34.6,57.8-39.6,82.6-20.1c1,0.8,2,1.4,3.6,2.4c0.6-2.3,1.1-4.2,1.5-6
			c3.3-15.9,10.2-30.8,20.2-43.5c4.2-5.3,8.9-10.1,15.2-12.9v212.5L2023.1,1013.5z"/>
		<path class="st2" d="M1217.2,1013.5c2-9.1,6-17,12.9-23.4c9.4-8.6,20.1-12,32.6-9.4c1.1,0.2,2.1,0.4,3.2,0.6
			c0.6-0.1,1.2-0.2,1.8-0.4c0.7-2.6,1.2-5.3,1.6-8c0.9-13.7,6.6-25.6,13.2-37.1c5.8-10.1,13.4-19.1,22.3-26.6
			c18.1-15.2,38.4-19.8,61-11.1c1.7,0.7,3.4,1.3,5.1,2c16.6,6.8,25.9,19.8,30.8,36.5c0.7,2.4,1.4,4.7,2.4,8c3.3-3.2,5.9-5.6,8.4-8.1
			c7.7-7.7,17-13.7,27.3-17.6c16.7-6.3,33.2-4.3,49.4,2.5c17.1,7.2,29.9,19.6,40.6,34.4c10.8,14.7,17.7,32,19.8,50.1
			c0.3,2.5,0.2,5,0.2,7.6L1217.2,1013.5z"/>
		<path d="M79.6,0c3.7,2,7.4,3.8,11,6c11.3,6.6,21.3,14.6,26.9,26.9c7.5,16.5,6.3,32.4-3.2,47.8c-4.6,7.2-11.1,13.1-18.8,16.8
			c-1.4,0.7-2.8,1.6-4.7,2.7c1,1.8,1.9,3.3,2.8,4.7c9.6,14.9,16.8,30.9,20.6,48.3c0.9,3.9,1.3,7.9,1.4,11.9
			c0.3,17.9-10.1,29-28,30.2c-2.9,0.2-5.8,0-8.7,0.1c-3.8,0.1-4.3,0.6-4.6,4.4c-0.4,5.6-0.3,11.3-1.1,16.8
			C71.4,227.8,67.5,238,59,246c-8.3,7.8-18,10.5-29.1,8.7c-8.9-1.5-16.8-5.7-24.5-10.1c-1.7-1-3.6-1.8-5.3-2.6C0,161.3,0,80.7,0,0
			H79.6z"/>
		<path d="M0,438.1c10.4,0.4,18.4,5,23.9,13.8c5.7,9.3,8.6,19.5,10.1,30.2c3.2,22.7-3,42.7-16.8,60.7c-2.5,3.3-5,6.6-8,10.5
			c1.9,1.1,3.6,2,5.2,2.9c10.4,5.5,18.8,12.9,24,23.7c2.9,5.9,4.3,12.4,4.2,19c-0.3,14.7-5.2,27.6-15.5,38.4
			C20.8,643.9,13.3,649,5.8,654c-2,1.3-3.9,1.9-5.8-0.2V438.1z"/>
		<path d="M2234.7,27.2c-14.1,13-30.3,22.1-49.4,24.7c-20.7,2.8-40.6-0.2-58.2-12.3c-9.1-6.2-15-14.6-16.4-25.8
			c-0.7-4.7-0.1-9.5,1.9-13.8h122.1C2234.7,9.1,2234.7,18.2,2234.7,27.2z"/>
		<path class="st2" d="M654.4,0c2.1,0.5,4.2,0.8,6.4,1c5.8,0.1,11.6,0,17.4,0.1c1.8,0,3.5,0.2,5.7,0.3c-0.2,1.2-0.5,2.4-1,3.5
			c-8.6,15.2-19.8,28.8-33.2,40c-4,3.4-7.7,6.8-12.9,8.7c-11.3,4.1-21.5,1.8-31-4.7c-3.2-2.3-6.1-5.2-8.4-8.4
			c-7.7-10.4-10.7-22.5-10.7-35.3c0.2-1.8,0.6-3.5,1.1-5.2H654.4z"/>
		<path class="st2" d="M561.7,0c-1.3,1.5-2.3,3.3-3.8,4.4c-14.4,10.5-29,20.5-45.2,28c-9.8,4.5-19.8,8.1-30.9,7.2
			c-9.1-0.7-17.4-3.3-23.7-10.4c-4.8-5.3-7.1-12.5-6.1-19.6c0.4-3.2,1.1-6.4,1.7-9.6L561.7,0z"/>
		<path d="M2092.9,0c-1.5,0.9-2.9,2.2-4.6,2.6c-20.6,6-41.2,11.9-62.5,14.5c-17.6,2.4-35.5,3.1-53.2,2.3c-18.2-1-36.2-3.5-53.2-10.3
			c-4.8-1.9-9.4-4.3-13.6-7.3c0.8-0.4,1.7-0.6,2.6-0.8c1.8-0.1,3.6-0.1,5.4-0.1c53.2,0,106.4,0,159.6,0c2.9-0.2,5.7-0.5,8.5-1
			H2092.9z"/>
		<path d="M2234.7,314.9c-13.7,8.4-28.1,15.4-44.1,18.1c-11.1,1.9-22.1,1.5-31.9-5.3c-1.8-1.2-3.4-2.7-4.7-4.4
			c-3.6-4.8-3.4-10.1,0.3-13.9c4.2-4.3,10-5,14.7-1.1c4.5,3.9,10.7,5.2,16.3,3.4c7.7-2.2,15.2-4.7,22.6-7.6
			c7.9-3.3,15.2-7.9,21.5-13.7c1.6-1.4,3.5-2.5,5.2-3.8C2234.7,296.1,2234.7,305.5,2234.7,314.9z"/>
		<path class="st2" d="M943.4,1013.5c1-0.7,2-1.8,3.1-2c9.6-1.9,19.1-4.1,28.8-5.3c5.6-0.5,11.3,0.7,16.3,3.4
			c1.6,0.9,2.8,2.6,4.2,3.9L943.4,1013.5z"/>
		<path class="st2" d="M960.2,182.9c-4.1-8.1-7.3-15.8-8.4-24.1c-2.2-17.2,0.7-32.7,13.9-45.4c9.2-8.9,19.2-16.2,31.8-19
			c11.6-2.5,23.6-2.4,35.1,0.3c2.3,0.5,4.6,1,6.9,1.8c4.7,1.6,8.9,3.8,11.2,8.8c1.9,4.1,2.7,4.3,7.4,3.1c9-2.3,18.2-4,27.5-3.4
			c22.6,1.6,44.9,5.5,64.8,16.8c22.4,12.7,37.9,31.5,41.8,57.4c4.2,27.6-0.3,53.9-17.5,77c-4,5.2-9.1,9.5-14.9,12.5
			c-4.7,2.5-4.2,2.5-4.1,7.5c0.2,16.5,2,33-1.8,49.4c-2.2,9.8-7,18.8-14,26c-9.7,10.4-21.9,18.2-35.4,22.8
			c-16.4,5.6-31.8,3.3-46.6-5.3c-10-5.8-18.1-13.9-25.5-22.6c-1.5-1.8-3.1-3.5-5-5.7c-2.8,2.8-5.3,5.3-7.8,7.8
			c-10.2,10.4-22.6,13.6-36.8,11.8c-15.2-1.9-29.7-7.7-42-16.8c-16.8-12.3-27.2-28.9-32.3-49c-2.6-10.2-3.7-20.6-4.7-31.1
			c-0.8-9.6-0.3-19.2,1.7-28.6c2.3-12.5,9.2-22.3,18.8-30.4s20.4-13.8,31.6-19.1C957.2,184.4,958.4,183.8,960.2,182.9z"/>
		<path class="st2" d="M539.8,350.4c1.3-2.3,2.2-4.2,3.3-6.1c10.9-18.9,26-32.3,48.3-35.3c22.1-3,41.1,3.1,54.9,21.5
			c6.3,8.5,9.4,18.4,10.1,28.9c0.2,3.8,1.7,5.8,4.9,7.6c17.4,10.2,30.8,24.2,38,43.4c5,13.3,7,27.1,3.7,41.2
			c-3.8,16-12.2,29-26.6,37.6c-1.7,1-3.2,2.2-5,3.4c0.5,1.7,0.8,3.1,1.3,4.4c3,8.4,4.6,17.2,4.5,26.2c0.3,8.9-0.3,17.8-1.7,26.6
			c-2.4,14.8-9.2,28.5-19.5,39.5c-6,6.6-13.5,11.7-21.9,14.9c-20.8,7.6-41.8,6.8-62.7,0.8c-18.4-5.2-35.7-13.9-50.7-25.8
			c-18.1-14.4-29.8-32.6-32-56c-0.3-4.7-0.3-9.4,0.1-14.1c0.3-4.9,0.1-5.5-4.8-5.3c-14.1,0.5-27-3.4-39.1-10
			c-21.4-11.6-35.8-28.8-39.9-53.4c-4-24.2,0.9-46.4,16.9-65.2c5-5.6,10.8-10.2,17.3-13.9c20-11.6,41.5-18.1,64.9-17.9
			c8.2,0,16.4,0.2,24.2,2.8C532.1,347.1,535.6,348.7,539.8,350.4z"/>
		<path class="st2" d="M1450.2,306.7c1.6-5,2.8-9.1,4.4-13.2c9.3-23.9,27.7-36.8,52.1-41.3c13.2-2.4,26.8-0.2,38.7,6.1
			c7.5,3.8,13.5,9.2,17.1,16.9c1.2,2.5,2.5,3.8,5.4,3.1c17.3-4.3,32.7,1.2,47.4,9.5c10.7,5.9,19.8,14.3,26.6,24.5
			c11.5,17.7,11,37.3-0.3,55.4c-6.3,10-15,17.2-25.1,22.9c-6.6,3.7-13.4,7.2-21,9c-9,2.1-18.4,2.4-27.5,1.1
			c-6.1-0.8-7.2-0.2-7.1,6.1s1.1,12.3,0.8,18.5c-0.5,8.7-1.4,17.3-2.8,25.9c-1.6,9-4.8,17.6-9.7,25.3c-11.4,19-27.3,27.2-49.4,24.5
			c-16.3-1.9-32.1-7-46.4-15.1c-12.1-7-21-16.8-23.9-30.9c-1.5-7.1-1.2-14.5,1-21.5c1.4-4.8,1.3-4.7-3.1-7
			c-7.1-3.7-14.2-7.3-21.1-11.3c-14.7-8.6-22-22.1-25.3-38.3c-3.8-19,0.1-36.5,11.3-52.2c8.4-11.8,19.4-20,34.2-22.2
			c5.8-0.9,11.2,0.5,16.6,1.9C1445.3,304.9,1447.5,305.8,1450.2,306.7z"/>
		<path class="st2" d="M1562.5,3c4.8-2.1,252.4-2.4,260.2-1.1c-4.2,1.4-7.1,2.5-10.2,3.3c-33.3,8.5-67,15.2-101,20.1
			c-22,3.1-44.2,4.1-66.3,2.9c-21.5-1-42.7-4.3-62.4-13.8c-6.2-3-11.9-6.9-17.8-10.4C1564.2,3.6,1563.3,3.3,1562.5,3z"/>
		<path class="st2" d="M1257.7,280.3c-0.1,16.1-3.2,32.1-9.1,47.1c-7.2,18.7-15.7,36.7-28,52.6c-2.8,3.4-5.7,6.5-8.9,9.5
			c-3,3-6.8,3.4-10.7,2.5c-6-1.4-8.8-8.4-5.7-14.6c1.2-2.4,2.8-4.7,4.8-6.6c4.6-4.6,8.6-9.9,11.7-15.6c8.5-14.8,15.9-30.2,20.7-46.6
			c5.4-17.6,5.4-36.5,0.2-54.1c-1.4-4.7-3.1-9.3-4.8-13.9c-2.3-6.3-5.3-12.3-10.2-17.2c-2.8-2.8-3.3-6.3-2-10.1
			c1.2-3.8,4.5-6.4,8.4-6.7c3.9-0.5,7.8,1.1,10.2,4.2c3.9,5.2,7.8,10.6,10.6,16.4c6.6,13.6,10.7,28.2,12.3,43.2
			C1257.6,273.9,1257.5,277.6,1257.7,280.3z"/>
		<path class="st2" d="M1463.7,750.5c1.4,15.7-12.2,35.2-34.4,35.2c-19.5,0-35.5-15.8-35.2-34.8c0.4-20.5,14.5-35,34.6-35.5
			c18.7-0.7,34.4,14,35,32.7C1463.7,748.9,1463.7,749.7,1463.7,750.5z"/>
		<path class="st2" d="M770.7,538.4c-16.8-0.7-32-3.2-46.2-9.9c-4.4-2.2-8.5-4.8-12.4-7.8c-4.2-3.2-5.7-7.8-5.3-13
			c0.4-5,4-8.8,9.4-10c4.4-1.1,9,1.3,10.8,5.5c1.8,4.2,5,5.9,8.8,7.3c12.1,4.5,24.5,6.8,37.4,5.9c7.8-0.6,15.5-1.7,23.2-3.3
			c12.7-2.4,25-6.1,36.6-12.1c8.4-4.3,15.9-10.4,21.8-17.8c1.8-2.2,3.6-4.2,6.5-4.6c4.1-0.6,8.2-0.4,10.8,3.5
			c2.6,3.5,2.7,8.2,0.3,11.8c-3,4.7-6.5,9.1-10.5,13.1c-9.2,8.7-20.3,14.6-32.2,19c-14.1,5.3-28.8,9-43.8,10.9
			C780.3,537.5,774.8,538,770.7,538.4z"/>
		<path d="M1955,451.1c15.3,0,27.5,9,32.2,23.7c2.6,8.2,2.7,16.9,0.3,25.1c-3.8,14.4-19.4,21.5-31.8,19.7c-2.9-0.4-5.7-1.2-8.6-1.5
			c-17.9-1.9-25.6-19.3-24.2-33.3c0.7-6.3,2.6-12.5,5.5-18.1C1933.6,456.6,1944.5,450.2,1955,451.1z"/>
		<path class="st2" d="M1585.8,547.7c-0.1-6.8,3.7-11.5,9-12.3c5-0.8,10.2,2.9,11.7,8.4c1.3,5.1,2.4,10.2,3.4,15.4
			c4,20.9,12.3,40.8,24.1,58.5c8.8,13.2,19.7,24.7,31.4,35.3c3,2.8,6.9,4.6,10.5,6.7c2,1.2,4.3,2,6.3,3.2c4.6,2.7,6.3,8.5,4,13.3
			c-2.2,4.6-7.6,6.8-12.4,5.2c-7.6-2.5-14.7-6.4-20.9-11.4c-19.2-15.5-34-34.6-45.8-56.2c-9.6-17.6-15.3-36.4-19.1-55.9
			C1587.3,554.2,1586.4,550.5,1585.8,547.7z"/>
		<path d="M1851.9,389.2c-0.2-28,6.4-54.4,20.3-78.7c9.4-16.5,22.7-30.5,38.8-40.5c1.8-1.2,3.6-2.5,5.5-3.5c4.5-2.6,9-1.9,12.4,1.8
			c3.4,3.6,3.6,9.1,0.6,13c-1.9,2.2-4.1,4.1-6.6,5.6c-11.8,8.1-22,17.8-29.7,30c-8.1,13-13.9,27.2-17.2,42.2
			c-2.2,9.8-2.4,19.8-3.3,29.7c-0.4,4.7,0.3,9.5,2.2,13.8c2.1,5-0.3,11.3-4.8,14.3c-4.6,3.1-11,1.9-14.1-2.7
			c-0.5-0.7-0.9-1.5-1.2-2.4c-1.7-4.7-2.1-9.9-2.8-14.9C1851.8,394.3,1851.7,391.8,1851.9,389.2z"/>
		<path class="st2" d="M342.9,306.1c-0.7,21.4-3.2,39.7-9.8,57.2c-4.2,11.2-9.6,21.6-20,28.4c-8.7,5.7-18,10.2-28.3,12.2
			c-5.3,1.1-9.7-0.4-13.1-4.6c-2.8-3-3.4-7.4-1.7-11.2c1.6-3.8,4.5-5.5,8.5-5.7c17.8-1,29.1-10.6,35.1-27
			c6.9-18.8,8.6-38.1,6.2-57.9c-0.6-4.7-1-9.4-1.3-14.1c-0.2-2.2-0.2-4.4,0-6.5c0.3-5.9,5.4-10.5,11.3-10.2c4.7,0.2,8.7,3.5,9.9,8
			c0.8,3.5,1.3,7.1,1.5,10.7C341.8,293.4,342.4,301.2,342.9,306.1z"/>
		<path class="st2" d="M1507.2,572.1c0-5.5,2.8-9.5,7.2-10.6c5.1-1.4,10.5,1.1,12.7,6c0.8,2,1.4,4.1,1.8,6.3
			c6.7,26.2,19.8,48.7,39.9,66.8c11.1,10,23.7,17.3,38.8,19.8c6.9,1.1,9.8,5.6,8.7,12.6c-0.8,5.3-6.2,8.8-12.4,8
			c-12.5-1.7-23.8-6.6-34.4-13.2c-19.1-11.9-33.2-28.4-44.4-47.7c-7.6-13-13.3-27.1-16.9-41.8c-0.3-1.4-0.6-2.8-0.9-4.3
			C1507.3,573.3,1507.2,572.7,1507.2,572.1z"/>
		<path class="st2" d="M231,882.5c0.7-4.4,1.2-9.7,2.6-14.8c1.1-4.2,3.8-7.5,8.7-7.9c7.6-0.7,12.7,4.9,11.6,12.7
			c-1.7,11.2-1.1,22.5,1.7,33.5c3.4,12.9,9.3,24.5,18.5,34.1c6.1,6.5,12.6,12.6,19.5,18.2c4,3.3,9,5.4,13.7,7.7
			c6.4,3.1,8.6,9.6,5,15.4c-2.6,4-7.4,5.7-11.9,4.3c-3.8-1.1-7.5-2.8-10.9-4.8c-20.2-12.7-36.8-28.9-47.4-50.6
			c-5.8-11.7-9.2-24.6-9.7-37.7C232.1,889.4,231.5,886.4,231,882.5z"/>
		<path class="st2" d="M1315.4,326.2c-0.8,10.9-1.5,21.4-2.3,31.9c-0.2,1.6-0.6,3.2-1.2,4.7c-2.1,5.5-6.9,7.8-12.8,6.3
			c-5.1-1.2-8.3-6.1-7.4-11.2c2.5-12.8,1.8-25.7,1.8-38.5c0.2-15.7-3-31.2-9.5-45.4c-3.8-8.4-8.8-15.8-17.1-20.6
			c-4.6-2.7-6-8.6-3.8-13.4c2.1-4.7,7.6-6.9,12.4-5c3.2,1.2,6.2,3,8.9,5.1c10.7,9,17.6,20.6,22.4,33.6c4.7,13.2,7.2,27,7.5,41
			C1314.4,318.7,1315,322.7,1315.4,326.2z"/>
		<path class="st2" d="M519.1,786.2c0,5.5-4.4,10-10,10c-4.1,0-7.8-2.5-9.3-6.3c-1.1-3.1-2-6.2-2.6-9.4
			c-3.4-14.7-9.9-27.7-21.5-37.6c-10.5-8.9-22-16.7-34.1-23.3c-4.6-2.5-9.3-5-13.9-7.5c-4.4-2.4-5.9-6.3-5.6-11s3.3-7.3,7.4-8.4
			c2.2-0.6,4.6-0.5,6.8,0.4c19,8.8,36.9,19.4,52.8,33.3c7.3,6.3,13.5,13.7,18.4,22C512.5,757.1,519.2,778.4,519.1,786.2z"/>
		<path d="M1952.7,358.2c0.7-14.7,2.8-29.3,6.2-43.7c1.9-7.9,5.6-15,9.7-21.8c4.4-7.5,9.7-14.5,15.8-20.7c2.9-2.9,6-5.8,10.6-6
			c5.3-0.3,8.7,1.5,10.6,5.8s1.2,8-2.7,11.8c-2.1,2-4.2,3.9-6.2,6.1c-11.7,13-18.2,28.3-20.3,45.5c-0.8,6.1-1.9,12.2-2,18.4
			c-0.1,7,0.8,14.1,1.3,21.1c0.1,2,0.6,4,0.6,5.9c-0.2,8-6.5,12.5-14.2,10.4c-3.5-0.8-6.1-3.7-6.4-7.3
			C1954.5,375.1,1953.7,366.6,1952.7,358.2z"/>
		<path class="st2" d="M808.9,620.1c-29.8-2.1-58.1-9.3-82.9-26.8c-4.5-3.4-8.8-7-12.8-11c-3.2-3-5.4-6.9-6.2-11.2
			c-1.2-5.6,1.8-11.2,7-13.3c5.8-2.5,12.4,0.2,13.9,6.4c1,4.3,3.3,7,6.7,9.4c16.4,11.9,34.7,19.1,54.4,22.5
			c7.9,1.4,15.8,2.1,23.7,3.6c5.5,0.8,9.3,6,8.4,11.5c0,0,0,0,0,0c-0.6,5.2-4.8,8.8-10.6,9C810,620.1,809.5,620.1,808.9,620.1z"/>
		<path class="st2" d="M194.1,898.5c0,1-0.2,2.1-0.4,3.1c-3.8,15.2,1.5,28.2,10.2,40.2c6.3,8.9,14.7,16.2,24.4,21.3
			c3.2,1.6,6.6,2.8,10.2,3.4c6.2,1.1,10,4.5,10.2,10c0.2,5.7-3.6,10.4-9.9,10.8c-4,0.1-7.9-0.5-11.6-1.8c-8.5-2.8-16.3-7.3-23-13.2
			c-10.4-8.9-19.6-18.9-25.6-31.4c-4.4-9.3-7.5-19-7.2-29.3c0.3-5.8,1.2-11.5,2.8-17.1c1.5-5.9,6.6-9.2,11.7-8.4
			C191,887,194.3,891.6,194.1,898.5z"/>
		<path class="st2" d="M1436.2,613.4c18.8,0.8,36.6,3.3,52.7,13c5.5,3.3,7.8,8.3,5.5,13.6s-7.8,7.5-13.7,5.4c-2.9-1-5.5-2.7-8.3-4
			c-8.5-4-17.8-5.5-27-5.9c-20.1-0.9-39.9,1.1-59,7.7c-5.5,1.9-10.5,0.6-13.3-3.2c-3.4-4.7-2.4-11.3,2.3-14.8c0.5-0.4,1.1-0.7,1.7-1
			c4.9-2.4,10.1-4.2,15.4-5.4C1406.9,615.8,1421.5,614,1436.2,613.4z"/>
		<path class="st2" d="M824.4,355.3c-12.3,0-21.2-5.9-26.9-16.3c-3.9-7.1-3.7-14.5,0.7-21.7c3.8-6.5,9.6-11.5,16.5-14.3
			c7.4-3,14.5-2.6,21.3,1.6c8.4,5.1,14.6,12.2,15.7,22.3C853.3,342.1,840.4,355.3,824.4,355.3z"/>
		<path d="M85,238.8c0.5-7.9,4.2-14.4,12-19.1c16.7-9.9,34.4,0.2,41.5,10.9c5,7.4,4.8,15.2,0.1,22.6c-4.6,7.3-11.5,12.9-19.6,15.8
			c-6.6,2.5-12.8,1.5-18.6-2.6C90.6,259.3,85.1,249.8,85,238.8z"/>
		<path class="st2" d="M487.5,638.6c9.3,0.4,17.7,5.9,23.1,15.9c1.9,3.5,2.4,7.7,1.4,11.6c-1.6,7.3-5.6,13.9-11.4,18.7
			c-8.7,7.1-21,7.8-30.3,1.5c-4-2.6-7.3-6-9.8-10c-4.2-7-4.2-14-0.9-21.3C464.4,645,474,638.7,487.5,638.6z"/>
		<path class="st2" d="M339.5,420.8c-8.4-0.4-13.8-1.4-17.8-6.1c-3.4-3.9-4.1-8-1.8-11.9c2.5-4.3,7-6.6,11.6-4.8
			c7.2,2.8,13.6,0.7,19.8-2.4c12.3-6.2,22.7-15,31.9-25.1c1-1.3,2.2-2.4,3.4-3.4c3.1-2.4,7.4-2.7,10.8-0.7c3.9,1.9,5.2,5.3,5,9.5
			c-0.2,3.7-1.9,7.1-4.5,9.6c-4.4,4.5-8.7,9.3-13.5,13.4c-8.7,7.4-17.9,14.4-29,18C349.5,418.7,343.3,419.9,339.5,420.8z"/>
		<path class="st2" d="M1359.7,247.4c9.8,0.1,18.5,6.5,22,16.5c3.1,8.6,0,19.2-7.3,25.1c-7.8,6.3-19.5,7.2-27.6,1.9
			c-4.8-3.1-7.5-8-8.9-13.3C1333.4,259.3,1345.1,247,1359.7,247.4z"/>
		<path d="M2071.7,302.6c11.6-0.9,21.2,8.6,20.5,21.9c-0.6,12.5-9.9,22-21.9,21.6c-8.5-0.2-14.4-4.3-17.9-11.9
			c-2-4.3-3.4-8.7-2.8-13.6C2051.3,308.9,2061.1,301.6,2071.7,302.6z"/>
		<path class="st2" d="M1265.6,433.3c-0.6,9.6-7.1,16.3-17.7,17.7c-15.2,2-30.1-13-25.5-28.6c2.3-8,9.2-13.7,17.5-13.6
			c8.5,0.2,19.8,5.1,24,16.6C1264.8,427.9,1265,430.6,1265.6,433.3z"/>
		<path class="st2" d="M1144.1,415c0.4,9.7-3.5,16.9-12.7,20.6c-6.5,2.7-12.8,2-18.2-2.9c-3.7-3.2-6.4-7.4-7.7-12.1
			c-4.7-17.1,12.4-28.4,25.2-25.9c6.4,1.2,12.7,8.1,13.4,14.8C1144.2,411.4,1144.1,413.2,1144.1,415z"/>
		<path class="st2" d="M1670.3,537.7c5,0.4,9.5,2.9,12.5,6.8c9.9,12.1-0.3,33.3-12.4,34.5c-2.8,0.3-5.7,0.2-8.5-0.4
			c-9-2.3-16.7-12.6-15.9-21c1-10.2,9.1-18.9,18.9-19.2C1666.8,538.2,1668.6,537.9,1670.3,537.7z"/>
		<path class="st2" d="M838.1,1.1c0.1,1.2,0.2,1.6,0.1,1.9c-6.2,8.4-13,16.1-22.6,20.6c-7.3,3.3-14.5,2.7-21.1-2.1
			c-5-3.7-8.7-8.9-10.5-14.9c-1.3-4.1-0.5-5.3,3.8-5.4c8.9-0.1,17.8,0,26.6-0.1L838.1,1.1z"/>
		<path class="st2" d="M187.8,44.7c-0.4,10-8.8,17.8-18.8,17.4c-11-0.5-16.2-5.7-16.3-18c-0.1-9,8.8-17,18.6-17
			C179.9,27.1,187.9,35.6,187.8,44.7z"/>
		<path class="st2" d="M250.2,809.5c0.7-3.3,0.8-6.9,2.3-9.9c2.9-5.8,8.2-7.7,14.6-7.4c7.7,0.3,17.5,8.2,16.8,17.4
			c-0.8,10.7-7.8,17.5-17.3,18.4c-7.4,0.7-14.7-5.6-15.6-13c-0.1-1.8-0.1-3.6,0-5.4L250.2,809.5z"/>
		<path class="st2" d="M1773.7,342.2c10.6-0.1,17.4,6.9,17.5,17.8c0,9.6-6.8,17-16,17s-16.8-8.1-17-18.3
			C1757.9,350.3,1765.1,341.1,1773.7,342.2z"/>
		<path class="st2" d="M735,320.1c-0.8-10.4,8.4-17.4,15.7-17.1c9.2,0.3,17,8.5,17.1,18.3c-0.1,8.4-6.9,15.1-15.2,15.2
			C742.3,336.5,735,329.6,735,320.1z"/>
		<path class="st2" d="M1344.4,452.8c-0.1-9.6,7.8-16.5,16.1-15.7c7.4,0.5,13.1,7,12.6,14.4c-0.1,0.7-0.2,1.5-0.3,2.2
			c-1.1,4-2.9,7.8-5.5,11c-3,4-10,4.3-14.5,1.4C1347.4,462.6,1344.2,457.8,1344.4,452.8z"/>
		<path class="st2" d="M424.3,784.7c-7.7,1-13.1-7.8-13-13.1c0.1-7.9,7.2-15.2,14.8-15.2c7.4,0.2,13.4,6.2,13.4,13.6
			C439.4,777.5,432,784.7,424.3,784.7z"/>
		<path class="st2" d="M299.6,892.5c6,0.3,9.3,4.2,9,10.5c-0.2,5.7-4.7,10.2-10,10c-5.8-0.2-10-5.3-9.6-11.5
			C289.4,895.5,293.3,892.2,299.6,892.5z"/>
		<path class="st2" d="M546.5,763.2c0.1,6.3-3.5,10.3-9.3,10.5c-5.6,0.1-10.3-4.4-10.4-10c0-0.1,0-0.2,0-0.2c-0.2-5.4,4-10,9.4-10.2
			c5.4-0.2,10,4,10.2,9.4C546.5,762.8,546.5,763,546.5,763.2z"/>
	</g>
</g>
<path class="st2" d="M1450.2,306.7c1.6-5,2.8-9.1,4.4-13.2c9.3-23.9,27.7-36.8,52.1-41.3c13.2-2.4,26.8-0.2,38.7,6.1
	c7.5,3.8,13.5,9.2,17.1,16.9c1.2,2.5,2.5,3.8,5.4,3.1c17.3-4.3,32.7,1.2,47.4,9.5c10.7,5.9,19.8,14.3,26.6,24.5
	c11.5,17.7,11,37.3-0.3,55.4c-6.3,10-15,17.2-25.1,22.9c-6.6,3.7-13.4,7.2-21,9c-9,2.1-18.4,2.4-27.5,1.1c-6.1-0.8-7.2-0.2-7.1,6.1
	s1.1,12.3,0.8,18.5c-0.5,8.7-1.4,17.3-2.8,25.9c-1.6,9-4.8,17.6-9.7,25.3c-11.4,19-27.3,27.2-49.4,24.5c-16.3-1.9-32.1-7-46.4-15.1
	c-12.1-7-21-16.8-23.9-30.9c-1.5-7.1-1.2-14.5,1-21.5c1.4-4.8,1.3-4.7-3.1-7c-7.1-3.7-14.2-7.3-21.1-11.3
	c-14.7-8.6-22-22.1-25.3-38.3c-3.8-19,0.1-36.5,11.3-52.2c8.4-11.8,19.4-20,34.2-22.2c5.8-0.9,11.2,0.5,16.6,1.9
	C1445.3,304.9,1447.5,305.8,1450.2,306.7z"/>
<path class="st2" d="M1585.8,547.7c-0.1-6.8,3.7-11.5,9-12.3c5-0.8,10.2,2.9,11.7,8.4c1.3,5.1,2.4,10.2,3.4,15.4
	c4,20.9,12.3,40.8,24.1,58.5c8.8,13.2,19.7,24.7,31.4,35.3c3,2.8,6.9,4.6,10.5,6.7c2,1.2,4.3,2,6.3,3.2c4.6,2.7,6.3,8.5,4,13.3
	c-2.2,4.6-7.6,6.8-12.4,5.2c-7.6-2.5-14.7-6.4-20.9-11.4c-19.2-15.5-34-34.6-45.8-56.2c-9.6-17.6-15.3-36.4-19.1-55.9
	C1587.3,554.2,1586.4,550.5,1585.8,547.7z"/>
<path class="st2" d="M1507.2,572.1c0-5.5,2.8-9.5,7.2-10.6c5.1-1.4,10.5,1.1,12.7,6c0.8,2,1.4,4.1,1.8,6.3
	c6.7,26.2,19.8,48.7,39.9,66.8c11.1,10,23.7,17.3,38.8,19.8c6.9,1.1,9.8,5.6,8.7,12.6c-0.8,5.3-6.2,8.8-12.4,8
	c-12.5-1.7-23.8-6.6-34.4-13.2c-19.1-11.9-33.2-28.4-44.4-47.7c-7.6-13-13.3-27.1-16.9-41.8c-0.3-1.4-0.6-2.8-0.9-4.3
	C1507.3,573.3,1507.2,572.7,1507.2,572.1z"/>
<path class="st2" d="M676.6,231.8c1.4,15.7-12.2,35.1-34.4,35.2c-19.5,0-35.5-15.8-35.2-34.8c0.4-20.5,14.5-35,34.6-35.4
	c18.7-0.7,34.4,14,35,32.7C676.7,230.1,676.7,230.9,676.6,231.8z"/>
<path class="st2" d="M1691.9,746.6c1.4,15.7-12.2,35.2-34.4,35.2c-19.5,0-35.5-15.8-35.2-34.8c0.4-20.5,14.5-35,34.6-35.5
	c18.7-0.7,34.4,14,35,32.7C1691.9,745,1691.9,745.8,1691.9,746.6z"/>
<path class="st2" d="M1590.2,794.3c9.8,0,18.5,6.5,22,16.5c3.1,8.6,0,19.2-7.3,25.1c-7.8,6.3-19.5,7.2-27.6,1.9
	c-4.8-3.1-7.5-8-8.9-13.3C1563.9,806.3,1575.7,793.9,1590.2,794.3z"/>
</svg>
